<svg xmlns="http://www.w3.org/2000/svg" xmlns:xlink="http://www.w3.org/1999/xlink" version="1.1" width="341px" height="330px" viewBox="-0.5 -0.5 341 330"><defs/><g><ellipse cx="16" cy="16" rx="15" ry="15" fill="none" stroke="rgb(0, 0, 0)" stroke-width="3" pointer-events="all"/><path d="M 19.71 292 Q 45.03 292 45.03 147 Q 45.03 2 19.71 2" fill="none" stroke="rgb(0, 0, 0)" stroke-width="3" stroke-miterlimit="10" pointer-events="stroke"/><ellipse cx="17.5" cy="282" rx="12.5" ry="10" fill="none" stroke="rgb(0, 0, 0)" stroke-width="3" pointer-events="all"/><path d="M 174.68 292 Q 199.94 292 199.94 147 Q 199.94 2 174.68 2" fill="none" stroke="rgb(0, 0, 0)" stroke-width="3" stroke-miterlimit="10" pointer-events="stroke"/><path d="M 10.9 1.48 Q 105 12 175 2" fill="none" stroke="rgb(0, 0, 0)" stroke-width="3" stroke-miterlimit="10" pointer-events="stroke"/><path d="M 17.5 292 Q 105 272 175 292" fill="none" stroke="rgb(0, 0, 0)" stroke-width="3" stroke-miterlimit="10" pointer-events="stroke"/><ellipse cx="200" cy="152" rx="25" ry="90" fill="rgb(255, 255, 255)" stroke="none" pointer-events="all"/><ellipse cx="128.9" cy="125.9" rx="68.89856586558913" ry="68.89856586558913" fill="none" stroke="rgb(0, 0, 0)" stroke-width="3" transform="rotate(-45,128.9,125.9)" pointer-events="none"/><ellipse cx="127.93" cy="126.93" rx="45.93237724372609" ry="45.93237724372609" fill="none" stroke="rgb(0, 0, 0)" stroke-width="3" transform="rotate(-45,127.93,126.93)" pointer-events="none"/><ellipse cx="128.71" cy="128.71" rx="28.707735777328804" ry="28.707735777328804" fill="none" stroke="rgb(0, 0, 0)" stroke-width="3" transform="rotate(-45,128.71,128.71)" pointer-events="none"/><rect x="148" y="62" width="46.77" height="46.53" rx="12.56" ry="12.56" fill="rgb(255, 255, 255)" stroke="none" transform="rotate(-45,171.38,85.27)" pointer-events="none"/><path d="M 148 105 L 179 77" fill="none" stroke="rgb(0, 0, 0)" stroke-width="3" stroke-miterlimit="10" pointer-events="none"/><path d="M 271 282 L 172 183" fill="none" stroke="rgb(0, 0, 0)" stroke-width="3" stroke-miterlimit="10" pointer-events="none"/><path d="M 285 265 L 187 168" fill="none" stroke="rgb(0, 0, 0)" stroke-width="3" stroke-miterlimit="10" pointer-events="none"/><ellipse cx="279.69" cy="274.82" rx="11.692307692307693" ry="5.816326530612245" fill="none" stroke="rgb(0, 0, 0)" stroke-width="3" transform="rotate(-45,279.69,274.82)" pointer-events="none"/></g></svg>